<?xml version="1.0" standalone="no"?>
<!DOCTYPE svg PUBLIC "-//W3C//DTD SVG 20010904//EN"
 "http://www.w3.org/TR/2001/REC-SVG-20010904/DTD/svg10.dtd">
<svg version="1.0" xmlns="http://www.w3.org/2000/svg"
 width="64.000000pt" height="63.000000pt" viewBox="0 0 64.000000 63.000000"
 preserveAspectRatio="xMidYMid meet">

<g transform="translate(0.000000,63.000000) scale(0.100000,-0.100000)"
fill="#000000" stroke="none">
<path d="M352 583 c-12 -24 -13 -175 -1 -193 14 -23 29 6 29 60 0 25 3 69 6
98 6 44 4 52 -9 52 -9 0 -20 -8 -25 -17z"/>
<path d="M196 543 c-8 -24 46 -185 63 -191 15 -5 10 48 -12 149 -13 56 -40 78
-51 42z"/>
<path d="M464 539 c-3 -6 -9 -40 -12 -75 -2 -36 -9 -67 -13 -70 -14 -8 -10
-34 5 -34 20 0 55 104 56 168 0 23 -24 31 -36 11z"/>
<path d="M560 413 c-6 -16 -15 -37 -22 -48 -39 -66 -46 -97 -19 -81 15 10 81
124 81 142 0 25 -30 15 -40 -13z"/>
<path d="M255 307 c-4 -14 -2 -35 5 -46 9 -17 8 -22 -4 -27 -8 -3 -20 -21 -26
-40 -11 -32 -19 -38 -47 -35 -29 4 -11 -45 32 -86 49 -46 72 -51 178 -37 58 8
72 28 85 120 6 38 13 77 17 86 5 12 1 20 -11 24 -11 3 -39 16 -64 29 -25 12
-71 26 -102 30 -55 6 -58 5 -63 -18z m121 -104 c-3 -8 -6 -26 -6 -39 0 -28
-16 -31 -42 -7 -17 15 -25 53 -13 65 3 2 19 3 36 0 21 -3 29 -9 25 -19z"/>
<path d="M43 273 c-26 -9 -12 -42 29 -72 64 -47 82 -41 53 16 -22 43 -54 65
-82 56z"/>
</g>
</svg>
